<svg width="25" height="25" viewBox="0 0 25 25" fill="none" xmlns="http://www.w3.org/2000/svg">
<g id="Solid/General/Bag">
<g id="Icon">
<path fill-rule="evenodd" clip-rule="evenodd" d="M7.55283 5.68893V7.16872L5.78832 7.31114C4.54074 7.41185 3.52306 8.3512 3.32297 9.58674C3.27948 9.85526 3.23994 10.1243 3.20433 10.3936C3.18666 10.5273 3.25795 10.6567 3.37982 10.7144L3.46008 10.7524C9.11499 13.43 15.8865 13.43 21.5414 10.7524L21.6217 10.7144C21.7435 10.6567 21.8148 10.5273 21.7971 10.3937C21.7615 10.1243 21.722 9.85527 21.6785 9.58674C21.4784 8.3512 20.4607 7.41185 19.2132 7.31114L17.4487 7.16872V5.68893C17.4487 4.7866 16.7885 4.02004 15.8962 3.88618L14.6254 3.69557C13.2168 3.48429 11.7846 3.48429 10.3761 3.69557L9.10533 3.88618C8.21298 4.02004 7.55283 4.7866 7.55283 5.68893ZM14.3936 5.24079C13.1387 5.05255 11.8628 5.05255 10.6079 5.24079L9.33712 5.4314C9.20964 5.45052 9.11533 5.56003 9.11533 5.68893V7.05874C11.3704 6.92955 13.6311 6.92955 15.8862 7.05874V5.68893C15.8862 5.56003 15.7919 5.45052 15.6644 5.4314L14.3936 5.24079Z" fill="white"/>
<path d="M21.999 12.574C21.9912 12.4281 21.8384 12.3369 21.7048 12.3961C15.9017 14.9655 9.09975 14.9655 3.2967 12.3961C3.16306 12.3369 3.01027 12.4281 3.00249 12.574C2.89648 14.5651 3.00331 16.5647 3.32297 18.5386C3.52306 19.7742 4.54073 20.7135 5.78832 20.8142L7.73823 20.9716C10.9081 21.2275 14.0934 21.2275 17.2632 20.9716L19.2132 20.8142C20.4607 20.7135 21.4784 19.7742 21.6785 18.5386C21.9982 16.5647 22.105 14.5651 21.999 12.574Z" fill="white"/>
</g>
</g>
</svg>
