<svg width="25" height="25" viewBox="0 0 25 25" fill="none" xmlns="http://www.w3.org/2000/svg">
<g id="Outline/General/Chart-pie-alt">
<g id="Icon">
<path fill-rule="evenodd" clip-rule="evenodd" d="M11.7181 6.02999C7.91428 6.42092 4.94727 9.63505 4.94727 13.5422C4.94727 17.7131 8.32845 21.0942 12.4993 21.0942C16.4065 21.0942 19.6206 18.1272 20.0115 14.3234H12.4993C12.0679 14.3234 11.7181 13.9736 11.7181 13.5422V6.02999ZM3.38477 13.5422C3.38477 8.50831 7.4655 4.42757 12.4993 4.42757C12.9308 4.42757 13.2806 4.77735 13.2806 5.20882V12.7609H20.8327C21.2642 12.7609 21.6139 13.1107 21.6139 13.5422C21.6139 18.576 17.5332 22.6567 12.4993 22.6567C7.4655 22.6567 3.38477 18.576 3.38477 13.5422Z" fill="#828282"/>
<path fill-rule="evenodd" clip-rule="evenodd" d="M16.1452 4.86887V9.89632H21.1726C20.5861 7.41256 18.6289 5.45535 16.1452 4.86887ZM15.6223 3.1897C19.3934 3.659 22.3825 6.64806 22.8518 10.4192C22.9228 10.9901 22.4496 11.4588 21.8743 11.4588H15.1035C14.8159 11.4588 14.5827 11.2256 14.5827 10.938V4.16715C14.5827 3.59186 15.0514 3.11866 15.6223 3.1897Z" fill="#828282"/>
</g>
</g>
</svg>
