<svg width="25" height="25" viewBox="0 0 25 25" fill="none" xmlns="http://www.w3.org/2000/svg">
<g id="Outline/Communication/Envelope">
<path id="Icon" fill-rule="evenodd" clipRule="evenodd" d="M2.92143 8.70122C2.62962 11.4126 2.64263 14.5396 3.04869 17.24C3.27338 18.7341 4.49283 19.8796 5.99811 20.0105L7.57126 20.1472C10.8515 20.4323 14.1503 20.4323 17.4306 20.1472L19.0037 20.0105C20.509 19.8796 21.7285 18.7341 21.9532 17.24C22.3592 14.5396 22.3723 11.4127 22.0804 8.70139C22.0427 8.38705 22.0003 8.07314 21.9532 7.75975C21.7285 6.2656 20.509 5.12013 19.0037 4.98928L17.4306 4.85253C14.1503 4.56739 10.8515 4.56739 7.57126 4.85253L5.9981 4.98928C4.49282 5.12013 3.27338 6.2656 3.04869 7.75975C3.00157 8.07309 2.95916 8.38694 2.92143 8.70122ZM7.70658 6.40916C10.8968 6.13184 14.1051 6.13184 17.2953 6.40916L18.8684 6.54591C19.6542 6.61422 20.2907 7.21215 20.408 7.99211C20.4202 8.0731 20.4321 8.15414 20.4436 8.23521L14.6509 11.4534C13.3138 12.1962 11.688 12.1962 10.3509 11.4534L4.55826 8.23524C4.56979 8.15416 4.58164 8.07311 4.59382 7.9921C4.71111 7.21215 5.34766 6.61422 6.13342 6.54591L7.70658 6.40916ZM20.6348 9.91642C20.8368 12.2787 20.7613 14.6587 20.408 17.0076C20.2907 17.7876 19.6542 18.3855 18.8684 18.4538L17.2953 18.5906C14.1051 18.8679 10.8968 18.8679 7.70658 18.5906L6.13342 18.4538C5.34766 18.3855 4.71111 17.7876 4.59382 17.0076C4.2406 14.6587 4.16502 12.2787 4.36707 9.91646L9.59209 12.8192C11.4011 13.8242 13.6007 13.8242 15.4097 12.8193L20.6348 9.91642Z" fill="#828282"/>
</g>
</svg>
