<svg width="25" height="25" viewBox="0 0 25 25" fill="none" xmlns="http://www.w3.org/2000/svg">
<g id="Outline/General/Home">
<path id="Icon" fill-rule="evenodd" clipRule="evenodd" d="M14.1221 5.76493C13.2153 4.89476 11.7835 4.89476 10.8766 5.76493L6.05743 10.3892C5.93936 10.5025 5.85993 10.6501 5.83042 10.8111C5.2532 13.9588 5.21059 17.1814 5.70438 20.3433L5.82159 21.0938H8.92207V14.6237C8.92207 14.1922 9.27185 13.8425 9.70332 13.8425H15.2954C15.7269 13.8425 16.0767 14.1922 16.0767 14.6237V21.0938H19.1772L19.2944 20.3433C19.7882 17.1814 19.7455 13.9588 19.1683 10.8111C19.1388 10.6501 19.0594 10.5025 18.9413 10.3892L14.1221 5.76493ZM9.79482 4.63751C11.3062 3.18724 13.6925 3.18724 15.2039 4.63751L20.0231 9.26182C20.3779 9.60223 20.6165 10.0457 20.7052 10.5293C21.3141 13.8497 21.359 17.249 20.8381 20.5844L20.6499 21.7901C20.572 22.2887 20.1425 22.6563 19.6378 22.6563H15.2954C14.864 22.6563 14.5142 22.3066 14.5142 21.8751V15.405H10.4846V21.8751C10.4846 22.3066 10.1348 22.6563 9.70332 22.6563H5.3609C4.85623 22.6563 4.42676 22.2887 4.34889 21.7901L4.1606 20.5844C3.63971 17.249 3.68466 13.8497 4.29354 10.5293C4.38222 10.0457 4.62085 9.60223 4.97561 9.26182L9.79482 4.63751Z" fill="#828282"/>
</g>
</svg>
