<svg width="25" height="25" viewBox="0 0 25 25" fill="none" xmlns="http://www.w3.org/2000/svg">
<g id="Outline/General/Pulse">
<path id="Icon" fill-rule="evenodd" clipRule="evenodd" d="M8.58364 5.07878C8.52404 4.72353 8.22929 4.45508 7.87004 4.42885C7.51079 4.40262 7.18018 4.62541 7.06961 4.96823L4.8926 11.7184H2.08398C1.65251 11.7184 1.30273 12.0682 1.30273 12.4997C1.30273 12.9312 1.65251 13.2809 2.08398 13.2809H5.46151C5.8006 13.2809 6.10097 13.0622 6.20505 12.7395L7.57291 8.4982L9.48901 19.9206C9.54939 20.2806 9.851 20.5508 10.2154 20.5714C10.5799 20.5919 10.91 20.3574 11.0105 20.0065L13.5413 11.1732L14.8745 15.8393C14.9604 16.14 15.2173 16.3605 15.5276 16.3998C15.8379 16.439 16.1416 16.2895 16.2997 16.0196L17.9042 13.2809H19.1189C19.459 14.4833 20.5644 15.3643 21.8757 15.3643C23.4577 15.3643 24.7402 14.0818 24.7402 12.4997C24.7402 10.9176 23.4577 9.63511 21.8757 9.63511C20.5644 9.63511 19.459 10.5161 19.1189 11.7184H17.4565C17.1791 11.7184 16.9226 11.8655 16.7824 12.1048L15.875 13.6536L14.2935 8.1184C14.1977 7.78311 13.8913 7.5519 13.5426 7.55178C13.1939 7.55165 12.8873 7.78263 12.7913 8.11785L10.459 16.2584L8.58364 5.07878ZM20.5736 12.4997C20.5736 11.7806 21.1565 11.1976 21.8757 11.1976C22.5948 11.1976 23.1777 11.7806 23.1777 12.4997C23.1777 13.2188 22.5948 13.8018 21.8757 13.8018C21.1565 13.8018 20.5736 13.2188 20.5736 12.4997Z" fill="#828282"/>
</g>
</svg>
