<svg width="25" height="25" viewBox="0 0 25 25" fill="none" xmlns="http://www.w3.org/2000/svg">
<g id="Outline/General/Wallet">
<g id="Icon">
<path d="M16.1467 12.5003C16.1467 11.6374 16.8463 10.9378 17.7092 10.9378C18.5722 10.9378 19.2717 11.6374 19.2717 12.5003C19.2717 13.3633 18.5722 14.0628 17.7092 14.0628C16.8463 14.0628 16.1467 13.3633 16.1467 12.5003Z" fill="#828282"/>
<path fill-rule="evenodd" clip-rule="evenodd" d="M21.2939 6.95242C20.6088 5.34235 19.0948 4.18493 17.2933 3.99534L16.6142 3.92389C13.1847 3.563 9.72563 3.5868 6.30142 3.99484L5.85148 4.04846C4.11315 4.2556 2.73581 5.61374 2.50427 7.34899C2.04806 10.7681 2.04806 14.2326 2.50427 17.6517C2.73581 19.3869 4.11316 20.745 5.85148 20.9522L6.30142 21.0058C9.72563 21.4138 13.1847 21.4376 16.6142 21.0768L17.2933 21.0053C19.0948 20.8157 20.6088 19.6583 21.2939 18.0482C22.3765 17.7259 23.2027 16.7874 23.3384 15.6278C23.5814 13.5499 23.5814 11.4508 23.3384 9.37285C23.2027 8.21324 22.3765 7.27473 21.2939 6.95242ZM16.4507 5.47781C13.1371 5.12911 9.79483 5.15211 6.4863 5.54636L6.03637 5.59998C5.00636 5.72272 4.19024 6.52746 4.05304 7.55564C3.61513 10.8376 3.61513 14.1631 4.05304 17.445C4.19024 18.4732 5.00636 19.2779 6.03637 19.4007L6.48631 19.4543C9.79483 19.8485 13.1371 19.8715 16.4507 19.5228L17.1297 19.4514C18.0157 19.3582 18.7997 18.9214 19.3429 18.2732C17.7719 18.3648 16.18 18.3239 14.6277 18.1504C13.3055 18.0026 12.2361 16.9614 12.0801 15.6278C11.8371 13.5499 11.8371 11.4508 12.0801 9.37285C12.2361 8.03925 13.3055 6.99806 14.6277 6.85028C16.18 6.67679 17.7719 6.63585 19.3429 6.72746C18.7997 6.07921 18.0157 5.6425 17.1297 5.54926L16.4507 5.47781ZM20.0815 8.34896C20.0821 8.35296 20.0828 8.35696 20.0834 8.36096L20.0897 8.40147L20.2966 8.36933C20.4037 8.37993 20.5105 8.39119 20.6172 8.40311C21.2291 8.4715 21.7163 8.95498 21.7864 9.55436C22.0154 11.5117 22.0154 13.489 21.7864 15.4463C21.7163 16.0457 21.2291 16.5291 20.6172 16.5975C20.5105 16.6095 20.4036 16.6207 20.2966 16.6313L20.0897 16.5992L20.0834 16.6397C20.0828 16.6437 20.0821 16.6477 20.0815 16.6517C18.3329 16.8099 16.5396 16.7918 14.8013 16.5975C14.1894 16.5291 13.7021 16.0457 13.632 15.4463C13.4031 13.489 13.4031 11.5117 13.632 9.55436C13.7021 8.95498 14.1894 8.4715 14.8013 8.40311C16.5396 8.20882 18.3329 8.19077 20.0815 8.34896Z" fill="#828282"/>
</g>
</g>
</svg>
